[center][img]http://img69.imageshack.us/img69/4854/animalsunitedposter.jpg[/img]



[img]http://leetleech.org/images/48874973695367351744.png[/img]


Format                           : AVI
Format/Info                      : Audio Video Interleave
File size                        : 853 MiB
Duration                         : 1h 26mn
Overall bit rate                 : 1 384 Kbps
Writing application              : VirtualDubMod 1.5.4.1 (build 2178/release)
Writing library                  : VirtualDub build 32839/release

Video
ID                               : 0
Format                           : MPEG-4 Visual
Format profile                   : Advanced Simple@L5
Format settings, BVOP            : Yes
Format settings, QPel            : No
Format settings, GMC             : No warppoints
Format settings, Matrix          : Custom
Codec ID                         : XVID
Codec ID/Hint                    : XviD
Duration                         : 1h 26mn
Bit rate                         : 1 254 Kbps
Width                            : 720 pixels
Height                           : 304 pixels
Display aspect ratio             : 2.35:1
Frame rate                       : 25.000 fps
Color space                      : YUV
Chroma subsampling               : 4:2:0
Bit depth                        : 8 bits
Scan type                        : Progressive
Bits/(Pixel*Frame)               : 0.229
Stream size                      : 773 MiB (91%)
Writing library                  : XviD 1.2.1 (UTC 2008-12-04)

Audio
ID                               : 1
Format                           : MPEG Audio
Format version                   : Version 1
Format profile                   : Layer 3
Mode                             : Joint stereo
Mode extension                   : MS Stereo
Codec ID                         : 55
Codec ID/Hint                    : MP3
Duration                         : 1h 26mn
Bit rate mode                    : Variable
Bit rate                         : 117 Kbps
Nominal bit rate                 : 128 Kbps
Channel(s)                       : 2 channels
Sampling rate                    : 48.0 KHz
Stream size                      : 72.3 MiB (8%)
Alignment                        : Aligned on interleaves
Interleave, duration             : 24 ms (0.60 video frame)
Interleave, preload duration     : 157 ms
Writing library                  : LAME3.98r
Encoding settings                : -m j -V 4 -q 2 -lowpass 17 --abr 128




[url]http://www.imdb.com/title/tt1620449/[/url]




[IMG]http://leetleech.org/images/89524873606771859129.png[/IMG]






[img]http://leetleech.org/images/95521316153253938506.png[/img]




[img]http://img199.imageshack.us/img199/7230/vlcsnap2011042208h25m29.png[/img]

[img]http://img163.imageshack.us/img163/7242/vlcsnap2011042208h25m10.png[/img]

[img]http://img813.imageshack.us/img813/6209/vlcsnap2011042208h25m44.png[/img]



A group of animals waiting for the annual flood they rely on for food and water discover that the humans, who have been destroying their habitats have built a dam for a leisure resort. The animals endeavor to save the delta and send a message to the humans not to interfere with nature. 

Source DVD-R 



Greetz to Imagine ,Flawl3ss,DiLLoN,BDK,NOiR,TOXiCiNK,THC,Ez,Rx,Boobyblue





[img]http://img411.imageshack.us/img411/6898/sig1n.jpg[/img]












[/center]